<svg xmlns="http://www.w3.org/2000/svg" viewBox="0 0 210 112.667"><path fill="#1F3253" stroke="#FFF" d="M84.78 107.089H70.74L89.82 65.15h14.4l19.08 41.938h-14.04l-3.24-7.489h-18l-3.24 7.49zm6.48-15.277h11.52l-5.76-14.079-5.76 14.079z"/><path fill="#1F3253" stroke="#FFF" d="M48.095 72.324c13.151.599 22.056.898 26.712.898 1.104 0 1.98-.27 2.628-.809.648-.54.972-1.268.972-2.187v-5.392h-16.56c-5.04 0-8.701-.948-10.98-2.846-2.28-1.897-3.42-4.943-3.42-9.137v-1.797c0-4.194 1.14-7.239 3.42-9.137 2.279-1.896 5.94-2.846 10.98-2.846h25.272v8.388H64.727c-2.88 0-4.32 1.198-4.32 3.595v1.198c0 2.396 1.44 3.595 4.32 3.595h12.96c4.704 0 8.16.919 10.368 2.756 2.207 1.838 3.312 4.714 3.312 8.628v2.996c0 3.915-1.105 6.791-3.312 8.628-2.208 1.837-5.665 2.756-10.368 2.756-2.448 0-5.04-.041-7.776-.12l-6.624-.239a549.94 549.94 0 0 1-15.192-.839v-8.089z"/><path fill="#1F3253" stroke="#FFF" d="M18.697 48.213H4.657l19.08-41.939h14.4l19.08 41.939h-14.04l-3.24-7.489h-18l-3.24 7.489zm6.48-15.278h11.52l-5.76-14.08-5.76 14.08z"/><text transform="translate(52.75 32.333)" fill="#1F3253" stroke="#FFF" stroke-width=".5" stroke-miterlimit="10" font-family="'NotoSans-BoldItalic'" font-size="18">dvocacy</text><text transform="translate(92.5 57.083)" fill="#1F3253" stroke="#FFF" stroke-width=".5" stroke-miterlimit="10" font-family="'NotoSans-BoldItalic'" font-size="18">ervices</text><text transform="translate(120.25 89.833)" fill="#1F3253" stroke="#FFF" stroke-width=".5" stroke-miterlimit="10" font-family="'NotoSans-BoldItalic'" font-size="18">laska, Inc.</text><text transform="translate(137.25 70.833)" fill="#1F3253" stroke="#FFF" stroke-width=".5" stroke-miterlimit="10" font-family="'NotoSans-BoldItalic'" font-size="10">of</text></svg>