<svg xmlns="http://www.w3.org/2000/svg" viewBox="17.64 12.057 63.848 75.888"><path fill="#1F3253" d="M27.303 72.638h51.693c.158 0 .311-.022.458-.058.012 0 .022.003.034.003a2 2 0 0 0 2-2V14.057a2 2 0 0 0-2-2H27.306c-5.323 0-9.653 4.331-9.653 9.653 0 .071.014.139.021.208-.007 4.916-.068 50.088-.007 56.027-.004.115-.018.229-.018.346 0 5.118 4.007 9.307 9.047 9.623.101.016.2.031.305.031h52.487a2 2 0 0 0 2-2v-7.528a2 2 0 0 0-4 0v5.528H27.303c-3.039 0-5.52-2.413-5.642-5.422.003-.054.013-.104.012-.159a33.909 33.909 0 0 1-.007-.407c.175-2.961 2.633-5.319 5.637-5.319zm1.364-50.928a2 2 0 0 1 4 0v40.624a2 2 0 0 1-4 0V21.71z"/></svg>