<svg xmlns="http://www.w3.org/2000/svg" viewBox="0 0 48 48"><g fill="#1F3253"><path d="M11.59 32.609v13.229h8.266V32.609a2.249 2.249 0 0 0-2.249-2.248h-3.768a2.249 2.249 0 0 0-2.249 2.248z"/><path d="M46.971 22.379L45.76 10.263a8.407 8.407 0 0 0-8.365-7.571H10.597a8.38 8.38 0 0 0-8.365 7.573l-1.206 12.04c-.095.954.138 1.932.729 2.687.31.395.679.717 1.098.956v16.415a3.485 3.485 0 0 0 3.476 3.476h3.244V32.324a3.74 3.74 0 0 1 3.741-3.74l4.89.003a3.74 3.74 0 0 1 3.737 3.739v13.512H41.65a3.487 3.487 0 0 0 3.476-3.476V25.948a3.79 3.79 0 0 0 .915-.731 3.693 3.693 0 0 0 .93-2.838zM10.597 5.784h26.797a5.285 5.285 0 0 1 5.078 3.763H5.521a5.279 5.279 0 0 1 5.076-3.763zm-5.492 6.855h37.781l.384 3.83H4.721l.384-3.83zm32.359 24.422a1.79 1.79 0 0 1-1.789 1.789h-6.772a1.788 1.788 0 0 1-1.786-1.789V30.29c0-.989.799-1.789 1.786-1.789h6.772c.987 0 1.789.8 1.789 1.789v6.771zm6.281-13.926a.586.586 0 0 1-.438.19H4.686a.586.586 0 0 1-.437-.188.592.592 0 0 1-.15-.452l.312-3.124h39.17l.313 3.124a.6.6 0 0 1-.149.45z"/></g></svg>