<svg xmlns="http://www.w3.org/2000/svg" viewBox="0 0 23.421 20.801"><g fill="#1F3253"><path d="M3.373 10.479h2.071v2.072H3.373zm0 3.277h2.071v2.07H3.373zm3.471-6.555h2.071v2.071H6.844zm0 3.278h2.071v2.072H6.844zm0 3.277h2.071v2.07H6.844z"/><path d="M19.278 7.499V1.457A1.46 1.46 0 0 0 17.822 0H1.457A1.46 1.46 0 0 0 0 1.457V17.82a1.46 1.46 0 0 0 1.457 1.457h10.681a6.948 6.948 0 0 0 11.284-5.426 6.95 6.95 0 0 0-4.144-6.352zM6.315 1.431h6.642v1.717H6.315V1.431zM1.79 4.788h15.696v2.198a6.94 6.94 0 0 0-1.016-.083 6.91 6.91 0 0 0-4.086 1.337V7.2h-2.07v2.071h.941a6.913 6.913 0 0 0-1.731 4.581 6.91 6.91 0 0 0 .917 3.441H1.79V4.788zm14.043 3.403a.637.637 0 1 1 1.273.001.637.637 0 0 1-1.273-.001zm-4.385 5.661a.638.638 0 1 1-1.275.005.638.638 0 0 1 1.275-.005zm5.022 6.298a.637.637 0 1 1 0-1.274.637.637 0 0 1 0 1.274zm3.858-9.171l-2.666 2.664c.018.082.049.157.049.244 0 .691-.561 1.252-1.252 1.252a1.243 1.243 0 0 1-1.236-1.187l-2.833-2.201c-.245-.192-.303-.53-.125-.756.177-.229.521-.257.767-.065l2.592 2.019c.225-.21.521-.345.85-.345.218 0 .412.07.59.168l2.527-2.529c.236-.235.593-.258.793-.055.199.201.176.555-.056.791zm1.802 3.511a.637.637 0 0 1 0-1.276.638.638 0 0 1 0 1.276z"/></g></svg>