<svg xmlns="http://www.w3.org/2000/svg" viewBox="1552.605 0 1214.789 1728"><g fill="#1F3253"><path d="M1757.491 986.565h533.5v62.363h-533.5zm0-157.932h658.228v62.363h-658.228zm0 340.311h329.169v62.364h-329.169zm0-506.559h533.5v62.364h-533.5zm0-311.819h393.972v214.753h-393.972zm788.165 937.008c0-96.346-78.051-174.396-174.396-174.396-96.067 0-174.174 77.94-174.174 174.396 0 96.012 78.051 174.008 174.174 174.008 96.29-.055 174.396-77.996 174.396-174.008zm80.658 60.59l-254.887 201.337L2512.562 1728l67.187-176.836 187.646-24.502zm-703.019 80.38l176.836 67.186 24.446 187.59 178.555-141.136-201.394-254.831z"/><path d="M1952.564 1496.617h-322.572V77.331h665.601l-1.386 270.242h287.371v962.729l52.719-37.362 24.557 30.655V270.243h-.554l1.164-1.275L2373.09 2.162V0h-820.484v1574.059h496.359l-5.377-41.575-91.024-35.867zm420.137-1389.185l174.729 162.811h-175.505l.776-162.811z"/></g></svg>