<svg xmlns="http://www.w3.org/2000/svg" viewBox="1513.689 257.775 1519.119 1421.95"><path fill="#1F3253" d="M2355.896 257.775c-228.836 0-431.363 114.238-553.947 288.558 25.369 16.549 50.103 39.25 74.02 68.427 91.451-136.75 239.328-232.691 410.429-253.313l69.48 117.599 69.5-117.599c262.988 31.692 472.038 240.733 503.759 503.731l-117.627 69.499 117.627 69.51c-21.191 175.829-121.899 327.209-264.764 417.938 9.105 20.745 14.232 41.956 15.135 63.822.664 15.988-.979 31.075-4.282 45.412 212.64-114.267 357.582-338.821 357.582-596.663 0-373.267-303.654-676.921-676.912-676.921zm172.735 1114.807c-156.052-125.412-199.68-63.755-270.48 7.026-49.438 49.457-174.518-53.806-282.527-161.814-108.01-108.038-211.253-233.1-161.824-282.547 70.81-70.791 132.438-114.456 6.987-270.451-125.403-156.062-208.993-36.25-277.581 32.338-79.184 79.156-4.168 374.141 287.37 665.717 291.576 291.538 586.552 366.507 665.688 287.39 68.569-68.598 188.419-152.188 32.367-277.659zm-475.248-331.956c0-138.715 162.385-163.419 162.385-217.548 0-26.271-21.021-37.294-40.465-37.294-35.738 0-55.686 39.925-55.686 39.925l-68.313-45.707s34.684-80.912 132.42-80.912c61.478 0 128.204 35.206 128.204 115.073 0 117.182-151.332 139.788-153.973 188.124h159.756v78.814H2057.59c-2.621-14.716-4.207-27.847-4.207-40.475zm302.742-106.13l145.038-229.121h112.453v208.623h44.652v76.184h-44.652v90.91h-90.92v-90.91h-166.571v-55.686zm166.571-20.498v-84.074c0-20.498 3.162-42.051 3.162-42.051h-1.045s-7.88 23.129-18.4 38.89l-56.749 86.182v1.054h73.032v-.001z"/></svg>