<svg xmlns="http://www.w3.org/2000/svg" viewBox="1368.5 44.5 1544 1520"><path fill="#1F3253" d="M1409.13 1414.557c-13.878 26.406-3.753 59.049 22.653 72.928 26.379 13.904 59.049 3.726 72.927-22.681.513-.972 101.142-97.686 602.505-97.686 542.971 0 691.524 136.377 692.172 136.943 10.611 11.044 24.786 16.605 38.961 16.605 13.446 0 26.92-4.995 37.396-15.039 21.519-20.682 22.221-54.837 1.593-76.356-8.586-8.937-55.971-53.405-179.415-94.688 11.151-11.205 18.036-26.649 18.036-43.713V999.513h49.113c27.135 0 31.725-21.653 10.26-48.356L2519.073 632.07c-21.411-26.703-55.944-26.515-77.085.432l-11.448 14.607c23.354 18.684 32.994 49.842 23.787 78.488-9.45 29.484-36.585 49.653-67.527 50.247l-5.184.108 155.573 170.343c19.306 21.195 24.301 51.786 12.744 78.003-11.582 26.217-37.584 43.173-66.203 43.173h-187.516v197.479c-10.206-.648-20.438-1.296-31.022-1.836v-226.423h218.538a41.334 41.334 0 0 0 37.826-24.65c6.615-15.012 3.78-32.481-7.316-44.577l-201.717-220.968 73.683-1.377c17.685-.352 33.21-11.88 38.583-28.701 5.428-16.848-.459-35.262-14.661-45.792l-89.046-66.258h9.477c22.032.27 41.554-18.441 41.554-41.337 0-10.854-4.158-20.736-11.017-28.107l-103.761-145.449h10.396c22.707-.783 41.553-18.468 41.553-41.337 0-11.259-4.509-21.465-11.799-28.943l-161.893-213.489c-7.938-10.503-19.602-17.118-33.615-16.362a41.318 41.318 0 0 0-33.074 17.469l-149.364 211.14c-8.937 12.608-10.044 29.16-2.97 42.876a41.292 41.292 0 0 0 30.941 21.924l-110.699 153.576c-7.695 10.665-9.396 24.111-5.562 36.423 19.035 3.672 36.721 13.77 50.625 29.106l10.854 13.014 113.914 141.831 21.113-28.134c9.396-12.501 10.881-29.295 3.889-43.281a41.31 41.31 0 0 0-36.963-22.869h-33.696l64.935-74.844a41.332 41.332 0 0 0 6.372-44.253 41.298 41.298 0 0 0-37.61-24.165h-43.552l110.376-153.145c9.1-12.582 10.342-29.214 3.268-43.011-6.291-12.312-18.279-20.547-31.807-22.194l70.821-100.116 80.46 106.137h-7.236c-15.498 0-29.673 8.64-36.747 22.41-7.101 13.77-5.886 30.32 3.105 42.93l106.677 149.553h-53.811c-17.82 0-33.643 11.421-39.231 28.351-5.616 16.929.271 35.531 14.554 46.196l92.123 68.526-44.091.837c-16.254.297-30.807 10.071-37.206 25.002-6.398 14.931-3.51 32.211 7.426 44.227l200.15 219.239h-166.158c-22.842 0-41.336 18.522-41.336 41.337v264.763c-20.25-.486-40.986-.783-62.371-.864v-220.752a79.224 79.224 0 0 1-20.33 2.646h-7.776v218.106c-10.341.027-20.683.081-30.726.188V999.647h49.112c27.108 0 31.698-21.653 10.261-48.33l-256.287-319.22c-21.438-26.729-55.971-26.514-77.085.433L1537.57 950.752c-21.114 26.946-16.309 48.789 10.827 48.789h49.086v291.33c0 6.129 1.16 11.934 2.808 17.496-140.023 37.205-180.145 85.265-191.161 106.19zm439.1-411.588h74.709v109.755h-74.709v-109.755zm0 158.598h74.709v102.275c-26.243 1.458-51.057 3.187-74.709 5.157v-107.432zm-123.498-158.598h74.709v109.755h-74.709v-109.755zm0 158.598h74.709v109.755h-74.709v-109.755z"/></svg>