<svg xmlns="http://www.w3.org/2000/svg" viewBox="0 0 30.535 32"><path fill="#1F3253" d="M29.529 15.637c-1.039-.989-2.473-1.229-3.739-1.438-.199-.034-.396-.067-.589-.103-.143-.038-.325-.079-.51-.123-1.688-.392-2.881-.775-2.885-2.157-.004-.91.297-1.752.613-2.646.363-1.023.739-2.083.68-3.316-.115-2.198-1.047-4.11-2.498-5.118A3.391 3.391 0 0 0 18.538 0c-1.077 0-1.881.586-2.208 1.606-.23.688-.192 1.357-.151 2.065.009.174.021.353.026.539.041.975-.076 1.781-.361 2.542-.54 1.521-1.623 2.938-2.507 4.006l-.483.607c-.676.853-1.374 1.735-2.168 2.443-.39.308-.806.42-1.341.535-.151.01-9.345.101-9.345.101v13.512s7.211-.009 7.616-.033c.356-.021.699-.041 1.013-.041h.146c.297.063.597.095.91.13.278.029.566.061.868.118.339.065.69.396 1.03.718.196.186.389.364.58.5.195.137.383.274.576.414.589.428 1.2.874 1.892 1.184.854.367 1.797.488 2.711.605.444.059.885.112 1.307.197l.754.086c.714.08 1.454.166 2.197.166.5 0 .941-.04 1.349-.121 1.461-.415 2.391-1.6 2.392-2.96.742-.296 1.406-.916 1.826-1.71.375-.71.501-1.47.365-2.143 1.41-.922 2.139-2.652 1.746-4.138.623-.428 1.053-1.146 1.201-2.019.207-1.209-.167-2.494-.95-3.272zm-.952 2.707c-.048.416-.238.93-.871 1.045-.341.098-.569.297-.679.575-.133.337-.084.759.135 1.12.229.271.265.84.129 1.335-.186.588-.615 1.005-1.28 1.229-.282.035-.536.232-.675.531-.158.342-.123.711.094.967.188.27.152.877-.106 1.377-.206.395-.499.632-.784.632a.507.507 0 0 1-.121-.015l-.045-.009h-.046c-.349 0-.804.152-1.028.501a.797.797 0 0 0-.057.764c.139.373.124.799-.049 1.084-.125.209-.324.33-.594.365-.478.127-.953.127-1.414.127-1.371-.123-2.826-.256-4.231-.509l-.67-.151c-.349-.078-.692-.153-.998-.23-.503-.248-1.066-.673-1.609-1.085-.181-.135-.357-.271-.531-.396a6.834 6.834 0 0 1-.405-.363c-.358-.336-.759-.715-1.259-.853-.47-.29-.971-.29-1.377-.29-1.31-.121-1.928-.595-2.247-1.742-.314-1.156-.325-2.477-.307-3.621l.004-.256c.01-1.078.027-2.427.58-3.406.275-.467.823-.566 1.458-.688.878-.143 1.569-.432 2.215-.928a.475.475 0 0 0 .256-.229c.263-.18.478-.443.674-.68a32.572 32.572 0 0 0 2.748-3.388c.175-.26.351-.51.524-.758.799-1.142 1.626-2.323 1.979-3.778.25-1.071.226-1.998.17-3.097l-.01-.163c-.043-.669-.053-1.389.324-1.442a.6.6 0 0 1 .088-.008c.612 0 1.385.772 1.844 1.487.479.908.729 1.859.703 2.72-.025.894-.316 1.74-.625 2.637-.364 1.059-.741 2.156-.654 3.349.125 1.625 1.415 3.03 3.21 3.496.524.136 1.081.227 1.618.314 1.002.163 2.038.332 2.883.806.553.276 1.141.859 1.036 1.624z"/></svg>