<svg xmlns="http://www.w3.org/2000/svg" viewBox="0 0 512 512"><path fill="#1F3253" d="M401.566 411.12l-62.133-122.21 17.903 6.855a9.858 9.858 0 0 0 3.763.659c5.446-.088 9.834-4.53 9.834-9.999 0-1.854-.505-3.59-1.384-5.078L314.821 173.7c.153.005.307.007.459.005 5.481-.045 9.914-4.505 9.914-10a9.935 9.935 0 0 0-1.216-4.783l-59.273-127.43a10 10 0 0 0-18.135.001L187.033 159.49a9.999 9.999 0 0 0 2.115 11.406 10.028 10.028 0 0 0 7.306 2.806l-55.008 108.194a10.001 10.001 0 0 0 12.489 13.871l17.904-6.856-62.134 122.21a10 10 0 0 0 12.219 13.97l105.043-36.786v87.986c0 5.523 4.477 10 10 10h37.334c5.521 0 10-4.477 10-10v-87.988l105.043 36.788a10 10 0 0 0 10.832-2.854 9.994 9.994 0 0 0 1.39-11.117zM255.637 59.42l38.58 82.937h-1.074c-.065-.002-.135.001-.203 0h-74.55c-.089.001-.178-.003-.268 0h-1.062l38.577-82.937zm-84.586 208.376l53.607-105.439h61.961l53.605 105.44-17.904-6.855a9.979 9.979 0 0 0-3.599-.658c-.028 0-.057-.004-.086-.004H192.53c-.32 0-.643.018-.963.049-.124.012-.244.034-.366.05-.189.026-.378.05-.566.086-.161.031-.318.072-.476.11-.145.035-.29.068-.434.111a9.122 9.122 0 0 0-.515.17c-.084.029-.17.052-.254.084l-17.905 6.856zm93.254 198.494H246.97v-81.394h17.334l.001 81.394zm10.515-102.5a10.022 10.022 0 0 0-3.308-.562H239.76a10 10 0 0 0-3.305.562l-97.633 34.191 59.842-117.703h113.942l59.843 117.703-97.629-34.191z"/></svg>