<?xml version="1.0" encoding="utf-8"?>
<!-- Generator: Adobe Illustrator 15.0.0, SVG Export Plug-In . SVG Version: 6.00 Build 0)  -->
<!DOCTYPE svg PUBLIC "-//W3C//DTD SVG 1.1//EN" "http://www.w3.org/Graphics/SVG/1.1/DTD/svg11.dtd">
<svg version="1.1" id="Layer_1" xmlns="http://www.w3.org/2000/svg" xmlns:xlink="http://www.w3.org/1999/xlink" x="0px" y="0px"
	 viewBox="0 0 210 112.667" enable-background="new 0 0 210 112.667" xml:space="preserve">
<g>
	<path fill="#1F3253" stroke="#FFFFFF" d="M84.78,107.089H70.74L89.82,65.15h14.4l19.08,41.938h-14.04l-3.24-7.489h-18
		L84.78,107.089z M91.26,91.812h11.52l-5.76-14.079L91.26,91.812z"/>
</g>
<g>
	<path fill="#1F3253" stroke="#FFFFFF" d="M48.095,72.324c13.151,0.599,22.056,0.898,26.712,0.898c1.104,0,1.98-0.27,2.628-0.809
		c0.648-0.54,0.972-1.268,0.972-2.187v-5.392h-16.56c-5.04,0-8.701-0.948-10.98-2.846c-2.28-1.897-3.42-4.943-3.42-9.137v-1.797
		c0-4.194,1.14-7.239,3.42-9.137c2.279-1.896,5.94-2.846,10.98-2.846h25.272v8.388H64.727c-2.88,0-4.32,1.198-4.32,3.595v1.198
		c0,2.396,1.44,3.595,4.32,3.595h12.96c4.704,0,8.16,0.919,10.368,2.756c2.207,1.838,3.312,4.714,3.312,8.628v2.996
		c0,3.915-1.105,6.791-3.312,8.628c-2.208,1.837-5.665,2.756-10.368,2.756c-2.448,0-5.04-0.041-7.776-0.12l-6.624-0.239
		c-4.896-0.201-9.961-0.479-15.192-0.839V72.324z"/>
</g>
<g>
	<path fill="#1F3253" stroke="#FFFFFF" d="M18.697,48.213H4.657l19.08-41.939h14.4l19.08,41.939h-14.04l-3.24-7.489h-18
		L18.697,48.213z M25.177,32.935h11.52l-5.76-14.08L25.177,32.935z"/>
</g>
<text transform="matrix(1 0 0 1 52.75 32.333)" fill="#1F3253" stroke="#FFFFFF" stroke-width="0.5" stroke-miterlimit="10" font-family="'NotoSans-BoldItalic'" font-size="18">dvocacy</text>
<text transform="matrix(1 0 0 1 92.5 57.083)" fill="#1F3253" stroke="#FFFFFF" stroke-width="0.5" stroke-miterlimit="10" font-family="'NotoSans-BoldItalic'" font-size="18">ervices</text>
<text transform="matrix(1 0 0 1 120.25 89.833)" fill="#1F3253" stroke="#FFFFFF" stroke-width="0.5" stroke-miterlimit="10" font-family="'NotoSans-BoldItalic'" font-size="18">laska, Inc.</text>
<text transform="matrix(1 0 0 1 137.25 70.833)" fill="#1F3253" stroke="#FFFFFF" stroke-width="0.5" stroke-miterlimit="10" font-family="'NotoSans-BoldItalic'" font-size="10">of</text>
</svg>
