<?xml version="1.0" encoding="utf-8"?>
<!-- Generator: Adobe Illustrator 15.0.0, SVG Export Plug-In . SVG Version: 6.00 Build 0)  -->
<!DOCTYPE svg PUBLIC "-//W3C//DTD SVG 1.1//EN" "http://www.w3.org/Graphics/SVG/1.1/DTD/svg11.dtd">
<svg version="1.1" id="Layer_1" xmlns="http://www.w3.org/2000/svg" xmlns:xlink="http://www.w3.org/1999/xlink" x="0px" y="0px"
	 viewBox="0 0 48 48" enable-background="new 0 0 48 48" xml:space="preserve">
<g>
	<path fill="#1F3253" d="M11.59,32.609v13.229h8.266V32.609c0-1.241-1.007-2.248-2.249-2.248h-3.768
		C12.597,30.361,11.59,31.368,11.59,32.609z"/>
	<path fill="#1F3253" d="M46.971,22.379L45.76,10.263c-0.43-4.298-4.046-7.571-8.365-7.571H10.597c-4.339,0-7.935,3.256-8.365,7.573
		l-1.206,12.04c-0.095,0.954,0.138,1.932,0.729,2.687c0.31,0.395,0.679,0.717,1.098,0.956v16.415c0,1.912,1.563,3.476,3.476,3.476
		h3.244V32.324c0-2.066,1.676-3.741,3.741-3.74l4.89,0.003c2.064,0.001,3.737,1.675,3.737,3.739v13.512H41.65
		c1.91,0,3.476-1.564,3.476-3.476V25.948c0.336-0.192,0.647-0.438,0.915-0.731C46.736,24.445,47.076,23.41,46.971,22.379z
		 M10.597,5.784h26.797c2.379,0,4.404,1.545,5.078,3.763H5.521C6.191,7.33,8.217,5.784,10.597,5.784z M5.105,12.639h37.781
		l0.384,3.83H4.721L5.105,12.639z M37.464,37.061c0,0.987-0.802,1.789-1.789,1.789h-6.772c-0.987,0-1.786-0.802-1.786-1.789v-6.771
		c0-0.989,0.799-1.789,1.786-1.789h6.772c0.987,0,1.789,0.8,1.789,1.789V37.061z M43.745,23.135c-0.112,0.124-0.271,0.19-0.438,0.19
		H4.686c-0.168,0-0.326-0.066-0.437-0.188c-0.111-0.124-0.166-0.287-0.15-0.452l0.312-3.124h39.17l0.313,3.124
		C43.908,22.85,43.854,23.013,43.745,23.135z"/>
</g>
</svg>
