<?xml version="1.0" encoding="utf-8"?>
<!-- Generator: Adobe Illustrator 15.0.0, SVG Export Plug-In . SVG Version: 6.00 Build 0)  -->
<!DOCTYPE svg PUBLIC "-//W3C//DTD SVG 1.1//EN" "http://www.w3.org/Graphics/SVG/1.1/DTD/svg11.dtd">
<svg version="1.1" id="Layer_1" xmlns="http://www.w3.org/2000/svg" xmlns:xlink="http://www.w3.org/1999/xlink" x="0px" y="0px"
	 viewBox="1552.605 0 1214.789 1728" enable-background="new 1552.605 0 1214.789 1728"
	 xml:space="preserve">
<g>
	<rect x="1757.491" y="986.565" fill="#1F3253" width="533.5" height="62.363"/>
	<rect x="1757.491" y="828.633" fill="#1F3253" width="658.228" height="62.363"/>
	<rect x="1757.491" y="1168.944" fill="#1F3253" width="329.169" height="62.364"/>
	<rect x="1757.491" y="662.385" fill="#1F3253" width="533.5" height="62.364"/>
	<rect x="1757.491" y="350.566" fill="#1F3253" width="393.972" height="214.753"/>
	<path fill="#1F3253" d="M2545.656,1287.574c0-96.346-78.051-174.396-174.396-174.396c-96.067,0-174.174,77.94-174.174,174.396
		c0,96.012,78.051,174.008,174.174,174.008C2467.55,1461.527,2545.656,1383.586,2545.656,1287.574z"/>
	<polygon fill="#1F3253" points="2626.314,1348.164 2371.427,1549.501 2512.562,1728 2579.749,1551.164 2767.395,1526.662 	"/>
	<polygon fill="#1F3253" points="1923.295,1428.544 2100.131,1495.73 2124.577,1683.32 2303.132,1542.184 2101.738,1287.353 	"/>
	<path fill="#1F3253" d="M1952.564,1496.617h-322.572V77.331h665.601l-1.386,270.242h287.371v962.729l52.719-37.362l24.557,30.655
		V270.243h-0.554l1.164-1.275L2373.09,2.162V0h-820.484v1574.059h496.359l-5.377-41.575L1952.564,1496.617z M2372.701,107.432
		l174.729,162.811h-175.505L2372.701,107.432z"/>
</g>
</svg>
