<?xml version="1.0" encoding="utf-8"?>
<!-- Generator: Adobe Illustrator 15.0.0, SVG Export Plug-In . SVG Version: 6.00 Build 0)  -->
<!DOCTYPE svg PUBLIC "-//W3C//DTD SVG 1.1//EN" "http://www.w3.org/Graphics/SVG/1.1/DTD/svg11.dtd">
<svg version="1.1" id="Layer_1" xmlns="http://www.w3.org/2000/svg" xmlns:xlink="http://www.w3.org/1999/xlink" x="0px" y="0px"
	 viewBox="1513.689 257.775 1519.119 1421.95"
	 enable-background="new 1513.689 257.775 1519.119 1421.95" xml:space="preserve">
<path fill="#1F3253" d="M2355.896,257.775c-228.836,0-431.363,114.238-553.947,288.558c25.369,16.549,50.103,39.25,74.02,68.427
	c91.451-136.75,239.328-232.691,410.429-253.313l69.48,117.599l69.5-117.599c262.988,31.692,472.038,240.733,503.759,503.731
	l-117.627,69.499l117.627,69.51c-21.191,175.829-121.899,327.209-264.764,417.938c9.105,20.745,14.232,41.956,15.135,63.822
	c0.664,15.988-0.979,31.075-4.282,45.412c212.64-114.267,357.582-338.821,357.582-596.663
	C3032.808,561.429,2729.154,257.775,2355.896,257.775z M2528.631,1372.582c-156.052-125.412-199.68-63.755-270.48,7.026
	c-49.438,49.457-174.518-53.806-282.527-161.814c-108.01-108.038-211.253-233.1-161.824-282.547
	c70.81-70.791,132.438-114.456,6.987-270.451c-125.403-156.062-208.993-36.25-277.581,32.338
	c-79.184,79.156-4.168,374.141,287.37,665.717c291.576,291.538,586.552,366.507,665.688,287.39
	C2564.833,1581.643,2684.683,1498.053,2528.631,1372.582z M2053.383,1040.626c0-138.715,162.385-163.419,162.385-217.548
	c0-26.271-21.021-37.294-40.465-37.294c-35.738,0-55.686,39.925-55.686,39.925l-68.313-45.707c0,0,34.684-80.912,132.42-80.912
	c61.478,0,128.204,35.206,128.204,115.073c0,117.182-151.332,139.788-153.973,188.124h159.756v78.814H2057.59
	C2054.969,1066.385,2053.383,1053.254,2053.383,1040.626z M2356.125,934.496l145.038-229.121h112.453v208.623h44.652v76.184h-44.652
	v90.91h-90.92v-90.91h-166.571V934.496L2356.125,934.496z M2522.696,913.998v-84.074c0-20.498,3.162-42.051,3.162-42.051h-1.045
	c0,0-7.88,23.129-18.4,38.89l-56.749,86.182v1.054H2522.696L2522.696,913.998z"/>
</svg>
