<?xml version="1.0" encoding="utf-8"?>
<!-- Generator: Adobe Illustrator 15.0.0, SVG Export Plug-In . SVG Version: 6.00 Build 0)  -->
<!DOCTYPE svg PUBLIC "-//W3C//DTD SVG 1.1//EN" "http://www.w3.org/Graphics/SVG/1.1/DTD/svg11.dtd">
<svg version="1.1" id="Layer_1" xmlns="http://www.w3.org/2000/svg" xmlns:xlink="http://www.w3.org/1999/xlink" x="0px" y="0px"
	 viewBox="0 0 1000 1000" enable-background="new 0 0 1000 1000" xml:space="preserve">
<g>
	<path fill="#1F3253" d="M157.2,880.3H495.6H834c49.7,0,90-40.3,90-90V639.4c0-34.101-12.6-65.2-33.3-89
		c-10.9-13.101-70-87.9-83.9-191C803.4,334.6,782.3,316.1,757.3,316.1H495.7H234c-25,0-46.2,18.5-49.5,43.301
		c-13.9,103.1-73,177.899-83.9,191c-20.7,23.8-33.3,55-33.3,89V790.3C67.2,840,107.5,880.3,157.2,880.3z"/>
	<path fill="#1F3253" d="M112.5,335.1C103.8,383.1,84.8,449.9,44,496c-9.2,10.3-8.2,26.1,2.1,35.3c4.8,4.2,10.7,6.3,16.6,6.3
		c6.9,0,13.8-2.8,18.7-8.399c48.5-54.7,70.5-130.8,80.3-185.101c5.6-31,32.5-53.5,64-53.5h255.7H765.6c31.4,0,58.301,22.5,64,53.5
		C839.5,398.4,861.4,474.5,909.9,529.2c4.899,5.6,11.8,8.399,18.699,8.399c5.9,0,11.801-2.1,16.601-6.3c10.3-9.2,11.3-25,2.1-35.3
		c-40.8-46-59.8-112.9-68.5-160.9c-10-54.8-57.6-94.6-113.2-94.6H536.9l15-17.5c1.6,0.2,3.1,0.3,4.699,0.3
		c25.301,0,45.7-21,44.7-46.5c-0.899-23.2-19.8-42.1-42.899-42.9c-25.5-1-46.5,19.4-46.5,44.7c0,6.5,1.399,12.7,3.899,18.3
		L501,214.2c-2.8,3.3-7.8,3.3-10.6,0l-14.601-17c2.9-6.7,4.2-14.3,3.4-22.3c-2.2-21.4-19.7-38.5-41.2-40c-26.2-1.9-48,18.8-48,44.6
		c0,24.7,20,44.7,44.7,44.7c1.899,0,3.7-0.1,5.5-0.4l14.2,16.6H225.7C170.1,240.5,122.5,280.3,112.5,335.1z"/>
</g>
</svg>
