<?xml version="1.0" encoding="utf-8"?>
<!-- Generator: Adobe Illustrator 15.0.0, SVG Export Plug-In . SVG Version: 6.00 Build 0)  -->
<!DOCTYPE svg PUBLIC "-//W3C//DTD SVG 1.1//EN" "http://www.w3.org/Graphics/SVG/1.1/DTD/svg11.dtd">
<svg version="1.1" id="Capa_1" xmlns="http://www.w3.org/2000/svg" xmlns:xlink="http://www.w3.org/1999/xlink" x="0px" y="0px"
	 viewBox="1368.5 44.5 1544 1520" enable-background="new 1368.5 44.5 1544 1520"
	 xml:space="preserve">
<g>
	<path fill="#1F3253" d="M1409.13,1414.557c-13.878,26.406-3.753,59.049,22.653,72.928c26.379,13.904,59.049,3.726,72.927-22.681
		c0.513-0.972,101.142-97.686,602.505-97.686c542.971,0,691.524,136.377,692.172,136.943c10.611,11.044,24.786,16.605,38.961,16.605
		c13.446,0,26.92-4.995,37.396-15.039c21.519-20.682,22.221-54.837,1.593-76.356c-8.586-8.937-55.971-53.405-179.415-94.688
		c11.151-11.205,18.036-26.649,18.036-43.713V999.513c0,0,22.005,0,49.113,0c27.135,0,31.725-21.653,10.26-48.356L2519.073,632.07
		c-21.411-26.703-55.944-26.515-77.085,0.432l-11.448,14.607c23.354,18.684,32.994,49.842,23.787,78.488
		c-9.45,29.484-36.585,49.653-67.527,50.247l-5.184,0.108l155.573,170.343c19.306,21.195,24.301,51.786,12.744,78.003
		c-11.582,26.217-37.584,43.173-66.203,43.173h-187.516v197.479c-10.206-0.648-20.438-1.296-31.022-1.836v-226.423h218.538
		c16.389,0,31.212-9.666,37.826-24.65c6.615-15.012,3.78-32.481-7.316-44.577l-201.717-220.968l73.683-1.377
		c17.685-0.352,33.21-11.88,38.583-28.701c5.428-16.848-0.459-35.262-14.661-45.792l-89.046-66.258h9.262c0.08,0,0.161,0,0.215,0
		c22.032,0.27,41.554-18.441,41.554-41.337c0-10.854-4.158-20.736-11.017-28.107l-103.761-145.449h10.179c0.082,0,0.136,0,0.217,0
		c22.707-0.783,41.553-18.468,41.553-41.337c0-11.259-4.509-21.465-11.799-28.943l-161.893-213.489
		c-7.938-10.503-19.602-17.118-33.615-16.362c-13.176,0.216-25.461,6.696-33.074,17.469l-149.364,211.14
		c-8.937,12.608-10.044,29.16-2.97,42.876c6.21,11.988,17.793,20.088,30.941,21.924l-110.699,153.576
		c-7.695,10.665-9.396,24.111-5.562,36.423c19.035,3.672,36.721,13.77,50.625,29.106l10.854,13.014l113.914,141.831l21.113-28.134
		c9.396-12.501,10.881-29.295,3.889-43.281c-6.993-14.014-21.304-22.869-36.963-22.869h-33.696l64.935-74.844
		c10.611-12.231,13.096-29.538,6.372-44.253c-6.723-14.742-21.411-24.165-37.61-24.165h-43.552l110.376-153.145
		c9.1-12.582,10.342-29.214,3.268-43.011c-6.291-12.312-18.279-20.547-31.807-22.194l70.821-100.116l80.46,106.137h-7.236
		c-15.498,0-29.673,8.64-36.747,22.41c-7.101,13.77-5.886,30.32,3.105,42.93l106.677,149.553h-53.811
		c-17.82,0-33.643,11.421-39.231,28.351c-5.616,16.929,0.271,35.531,14.554,46.196l92.123,68.526l-44.091,0.837
		c-16.254,0.297-30.807,10.071-37.206,25.002c-6.398,14.931-3.51,32.211,7.426,44.227l200.15,219.239h-166.158
		c-22.842,0-41.336,18.522-41.336,41.337v264.763c-20.25-0.486-40.986-0.783-62.371-0.864v-220.752
		c-6.345,1.674-13.095,2.646-20.33,2.646h-7.776v218.106c-10.341,0.027-20.683,0.081-30.726,0.188V999.647c0,0,21.978,0,49.112,0
		c27.108,0,31.698-21.653,10.261-48.33L1864.35,632.097c-21.438-26.729-55.971-26.514-77.085,0.433l-249.695,318.222
		c-21.114,26.946-16.309,48.789,10.827,48.789h49.086v291.33c0,6.129,1.16,11.934,2.808,17.496
		C1460.268,1345.572,1420.146,1393.632,1409.13,1414.557z M1848.23,1002.969h74.709v109.755h-74.709V1002.969z M1848.23,1161.567
		h74.709v102.275c-26.243,1.458-51.057,3.187-74.709,5.157V1161.567z M1724.732,1002.969h74.709v109.755h-74.709V1002.969z
		 M1724.732,1161.567h74.709v109.755h-74.709V1161.567z"/>
</g>
</svg>
