<?xml version="1.0" encoding="utf-8"?>
<!-- Generator: Adobe Illustrator 15.0.0, SVG Export Plug-In . SVG Version: 6.00 Build 0)  -->
<!DOCTYPE svg PUBLIC "-//W3C//DTD SVG 1.1//EN" "http://www.w3.org/Graphics/SVG/1.1/DTD/svg11.dtd">
<svg version="1.1" id="Layer_1" xmlns="http://www.w3.org/2000/svg" xmlns:xlink="http://www.w3.org/1999/xlink" x="0px" y="0px"
	 viewBox="0 0 512 512" enable-background="new 0 0 512 512" xml:space="preserve">
<g id="Artwork">
</g>
<g id="Layer_2">
	<path fill="#1F3253" d="M401.566,411.12l-62.133-122.21l17.903,6.855c1.226,0.469,2.51,0.691,3.763,0.659
		c5.446-0.088,9.834-4.53,9.834-9.999c0-1.854-0.505-3.59-1.384-5.078L314.821,173.7c0.153,0.005,0.307,0.007,0.459,0.005
		c5.481-0.045,9.914-4.505,9.914-10c0-1.732-0.439-3.363-1.216-4.783l-59.273-127.43c-1.641-3.527-5.178-5.782-9.068-5.782
		c-3.89,0-7.427,2.255-9.067,5.783L187.033,159.49c-1.798,3.864-0.949,8.443,2.115,11.406c1.997,1.931,4.643,2.89,7.306,2.806
		l-55.008,108.194c-1.875,3.688-1.286,8.148,1.482,11.224c2.769,3.073,7.143,4.126,11.007,2.647l17.904-6.856l-62.134,122.21
		c-1.851,3.641-1.302,8.042,1.387,11.116c1.934,2.212,4.696,3.417,7.529,3.417c1.105,0,2.221-0.185,3.303-0.563l105.043-36.786
		v87.986c0,5.523,4.477,10,10,10h37.334c5.521,0,10-4.477,10-10v-87.988l105.043,36.788c3.854,1.351,8.144,0.219,10.832-2.854
		C402.869,419.161,403.418,414.761,401.566,411.12z M255.637,59.42l38.58,82.937h-1.074c-0.065-0.002-0.135,0.001-0.203,0H218.39
		c-0.089,0.001-0.178-0.003-0.268,0h-1.062L255.637,59.42z M171.051,267.796l53.607-105.439h61.961l53.605,105.44l-17.904-6.855
		c-1.172-0.449-2.392-0.661-3.599-0.658c-0.028,0-0.057-0.004-0.086-0.004H192.539c-0.003,0-0.006,0-0.009,0
		c-0.32,0-0.643,0.018-0.963,0.049c-0.124,0.012-0.244,0.034-0.366,0.05c-0.189,0.026-0.378,0.05-0.566,0.086
		c-0.161,0.031-0.318,0.072-0.476,0.11c-0.145,0.035-0.29,0.068-0.434,0.111c-0.174,0.051-0.345,0.109-0.515,0.17
		c-0.084,0.029-0.17,0.052-0.254,0.084L171.051,267.796z M264.305,466.29H246.97v-81.394h17.334L264.305,466.29L264.305,466.29z
		 M274.82,363.79c-1.063-0.372-2.183-0.562-3.308-0.562h-31.752c-1.125,0-2.243,0.19-3.305,0.562l-97.633,34.191l59.842-117.703
		h113.942l59.843,117.703L274.82,363.79z"/>
</g>
</svg>
